<?xml version="1.0" encoding="UTF-8"?>
<svg id="Layer_2" data-name="Layer 2" xmlns="http://www.w3.org/2000/svg" viewBox="0 0 110 111.22">
  <defs>
    <style>
      .cls-1 {
        fill: #2b2b2b;
      }

      .cls-2 {
        fill: #444;
      }

      .cls-3 {
        fill: #232323;
      }

      .cls-4 {
        fill: #474747;
      }

      .cls-5 {
        fill: #db826a;
      }

      .cls-6 {
        fill: #cecece;
      }

      .cls-7 {
        fill: #aaa;
      }

      .cls-8 {
        fill: #ffb18f;
      }

      .cls-9 {
        fill: #8e99dd;
      }

      .cls-10 {
        fill: #7c4639;
      }

      .cls-11 {
        fill: #8c8c8c;
      }

      .cls-12 {
        fill: #353535;
      }

      .cls-13 {
        fill: #161515;
      }

      .cls-14 {
        fill: #5f6ad1;
      }
    </style>
  </defs>
  <g id="Layer_1-2" data-name="Layer 1">
    <g id="Layer_9" data-name="Layer 9">
      <g>
        <path class="cls-14" d="M110,55c0,30.38-24.63,55-55,55S0,85.38,0,55,24.62,0,55,0c30.38,0,55,24.63,55,55Z"/>
        <path class="cls-13" d="M17.14,69.05c1.3-9.37,24.53-21.69,40.38-19.91,15.86,1.78,30.68,12.21,34.47,19.91,3.79,7.71-1.78,35.45-1.78,35.45H23.35s-8.47-19.22-6.21-35.45Z"/>
        <path class="cls-13" d="M30.34,48.77s-1.9-3.44,2.49-8.77c4.39-5.33,25.49-10.08,36.4-2.02,10.91,8.06,12.28,8.24,11.62,10.79-.66,2.55-17.07,13.52-18.26,18.32-1.19,4.8-6.76,12.97-7.13,12.98-.37,0-4.96-9.48-8.64-14.46-3.67-4.98-16.48-16.83-16.48-16.83Z"/>
        <path class="cls-8" d="M38.29,35.97c-.24,3.2,2.96,14.23,6.4,18.97,3.44,4.74,8.53,7.71,11.54,7.94,3.01.24,7.74-3.28,10.94-9.57,3.2-6.28,5.73-17.94,5.73-17.94l-34.62.59Z"/>
        <path class="cls-5" d="M72.65,36.49c-.3-.39-.64-.76-1.03-1.09l-33.34.57c-.18,2.46,1.67,9.54,4.09,14.84,3.79-1.27,7.65-2.61,9.9-3.62,2.13-.96.85-3.03,2.8-3.39,1.94-.36,1.59,3.2,3.25,3.68,1.18.34,6.42,2.3,9.87,3.61,2.13-5.1,3.84-11.94,4.46-14.59Z"/>
        <path class="cls-9" d="M30.72,47.53s5.91-6.76,23.04-6.64c17.13.12,25.52,6.98,25.52,6.98,0,0-15.09-5.73-26.66-5.32-9.85.35-21.91,4.98-21.91,4.98Z"/>
        <path class="cls-12" d="M28.33,48.65c-.41-.11,7.35-25.96,17.59-33.12,5.87-4.1,16.79-3.99,22.12.51,6.99,5.9,14.7,32.36,14.35,33.2-.36.83-9.18-6.88-27.32-7.35-18.49-.47-25.44,7.11-26.75,6.76Z"/>
        <path class="cls-12" d="M28.33,48.65s.88-1.77,1.85-1.36c6.85,2.85,21.8,16.71,24.1,24.23,2.96,9.72,1.67,15.43,1.67,15.43,0,0-4.62-12.57-11.5-21.34-5.49-7-16.12-16.95-16.12-16.95Z"/>
        <path class="cls-12" d="M82.39,49.25s-1.25-2.43-2.01-2.02c-6.39,3.46-21.51,16.85-23.8,24.35-2.96,9.72-.63,15.37-.63,15.37,0,0,3.46-12.11,10.34-20.89,5.49-7,16.1-16.81,16.1-16.81Z"/>
        <path class="cls-5" d="M52.64,49.86s1.52-.94,2.31-1.13c.55-.13,2.85,1.36,2.56,1.54-.3.18-5.1,0-4.86-.41Z"/>
        <path class="cls-10" d="M50.82,55.39c-.13-.32,2.17-1,4.73-1.08,2.56-.08,4.2.19,3.78.42-.26.14-2.27.02-3.74.14-1.48.11-4.4,1.45-4.77.53Z"/>
        <path class="cls-5" d="M50.5,54.14c.53.31-1.01,1.19-.36,1.96.8.94,1.66.41,1.66.65s-1.21.79-2.25-.65c-.62-.86.24-2.37.95-1.96Z"/>
        <path class="cls-2" d="M56.55,15.01c-6.41,0-11.96,20.9-13.3,27.79,3.28-.64,7.19-1.03,11.83-.91,4.88.13,9.08.78,12.63,1.65-1.11-7.33-2.56-28.53-11.16-28.53Z"/>
        <path class="cls-9" d="M55.46,85.67c-.63-5.48-2.78-13.7-9.58-21.13-4.13-4.51-7.76-7.38-10.73-9.21,3.17,3.21,6.78,7.06,9.31,10.28,5.56,7.09,9.64,16.65,11,20.06Z"/>
        <path class="cls-12" d="M21.5,61.99c-8.03,6.33-17.48,30.53-18.9,38.35-1.42,7.83,25.28,10.63,30.14,8.02,4.86-2.61-2.75-35.29-5.6-39.08-2.84-3.79-3.99-8.6-5.64-7.29Z"/>
        <path class="cls-4" d="M66.29,66.06c2.32-2.96,5.55-6.41,8.51-9.42-2.56,1.81-5.5,4.35-8.75,7.9-6.58,7.19-8.81,15.11-9.51,20.58,1.25-3.71,4.5-12.36,9.76-19.06Z"/>
        <path class="cls-3" d="M23.82,76.04s-2.96,8.42-4.86,10.2c-1.9,1.78-5.33.47-7.47,2.02-2.13,1.54-2.49,6.16-2.49,6.16,0,0,4.76-3.56,9.43-1.78s8.11-1.66,8.11-1.66l-2.73-14.94Z"/>
        <path class="cls-1" d="M24.3,94.75s-6.77-1.75-9.54.74c-1.98,1.78-1.93,3.92-1.93,3.92,0,0,1.63-1.92,3.69-2.63,3.08-1.06,9.96,3.18,7.18-.34l.59-1.69Z"/>
        <path class="cls-12" d="M86.42,61.99c8.03,6.33,17.48,30.53,18.9,38.35,1.42,7.83-25.28,10.63-30.14,8.02-4.86-2.61,2.75-35.29,5.6-39.08,2.85-3.79,3.99-8.6,5.64-7.29Z"/>
        <path class="cls-3" d="M84.1,76.04s2.96,8.42,4.86,10.2c1.9,1.78,5.33.47,7.47,2.02,2.14,1.54,2.49,6.16,2.49,6.16,0,0-4.76-3.56-9.43-1.78-4.67,1.78-8.11-1.66-8.11-1.66l2.73-14.94Z"/>
        <path class="cls-1" d="M83.62,94.75s6.77-1.75,9.54.74c1.98,1.78,1.93,3.92,1.93,3.92,0,0-1.63-1.92-3.69-2.63-3.08-1.06-9.96,3.18-7.18-.34l-.59-1.69Z"/>
        <path class="cls-1" d="M95.62,85.67s-1.11-3.05-3.25-3.88c-2.14-.83-5.19-3.02-5.19-3.02,0,0,1.13,5.52,2.3,5.93,2.79.97,6.13.97,6.13.97Z"/>
        <rect class="cls-7" x="23.11" y="70.59" width="66.87" height="38.77"/>
        <rect class="cls-11" x="23.11" y="109.31" width="66.87" height="1.91"/>
        <g>
          <rect class="cls-6" x="35.11" y="108.8" width="7.11" height=".66"/>
          <rect class="cls-6" x="70.87" y="108.8" width="7.11" height=".66"/>
        </g>
        <rect class="cls-6" x="23.11" y="70.68" width="66.87" height=".9"/>
        <path class="cls-1" d="M12.31,85.67s1.11-3.05,3.25-3.88c2.13-.83,5.19-3.02,5.19-3.02,0,0-1.13,5.52-2.3,5.93-2.79.97-6.13.97-6.13.97Z"/>
        <g>
          <path class="cls-6" d="M45.62,88.62c0,.33-.11.69-.34,1.09l-2.85,4.98h3.17v1.36h-5.03v-.96l3.51-6.18v-1.92h-1.89v1.93h-1.52v-2.31c0-.63.32-.94.95-.94h3.04c.63,0,.95.31.95.94v2.01Z"/>
          <path class="cls-6" d="M52.02,94.09h-.79v1.96h-1.48v-1.96h-3.41v-.92s2.58-7.5,2.58-7.5h1.58v.06l-2.42,7.04h1.67v-3.12h1.48v3.12h.79v1.32Z"/>
          <path class="cls-6" d="M57.42,87.04h-1.71v9h-1.54v-9s-1.71,0-1.71,0v-1.37h4.96v1.37Z"/>
          <path class="cls-6" d="M63.47,96.04h-1.36l-2.49-6.53c.07.32.1.57.1.75v5.78h-1.51v-10.37s1.36,0,1.36,0l2.49,6.4c-.07-.32-.1-.57-.1-.75v-5.65h1.51v10.37Z"/>
          <path class="cls-6" d="M69.22,87.04h-1.71v9h-1.54v-9h-1.71v-1.37h4.96v1.37Z"/>
          <path class="cls-6" d="M71.88,96.04h-1.52v-7.32h-.6v-.21s.8-2.85.8-2.85h1.32v10.37Z"/>
        </g>
      </g>
    </g>
  </g>
</svg>